<?xml version="1.0" encoding="utf-8"?>
<!-- Generator: Adobe Illustrator 17.0.0, SVG Export Plug-In . SVG Version: 6.00 Build 0)  -->
<!DOCTYPE svg PUBLIC "-//W3C//DTD SVG 1.1//EN" "http://www.w3.org/Graphics/SVG/1.1/DTD/svg11.dtd">
<svg version="1.1" id="Layer_1" xmlns="http://www.w3.org/2000/svg" xmlns:xlink="http://www.w3.org/1999/xlink" x="0px" y="0px"
	 width="1166.76px" height="106.386px" viewBox="16.03 113.765 1166.76 106.386"
	 enable-background="new 16.03 113.765 1166.76 106.386" xml:space="preserve">
<g>
	<path fill="#EDEDED" d="M886.764,209.45c-1.475,0.536-3.352,0.872-4.893,0.872c-8.177,0-14.143-3.62-16.824-11.194
		c-6.837-2.01-10.86-8.446-10.86-17.764c0-14.48,9.653-27.014,21.854-27.014c9.92,0,15.82,7.105,15.82,18.434
		c0,13.474-8.246,25.204-19.306,26.813c1.742,3.352,5.563,4.826,9.786,4.826c1.542,0,2.748-0.2,4.022-0.536l0.402,5.563H886.764z
		 M861.627,180.827c0,7.775,2.883,12.736,8.78,12.736c7.776,0,14.078-10.055,14.078-20.244c0-7.776-2.95-12.737-8.85-12.737
		c-7.774,0-14.008,10.055-14.008,20.244L861.627,180.827z M921.488,198.993h-5.832l0.27-4.692h-0.27
		c-3.284,2.95-7.038,5.498-10.993,5.498c-5.496,0-7.843-3.083-7.843-8.312c0-1.542,0.2-2.95,0.536-4.625l4.156-20.78h7.173
		l-3.955,19.842c-0.336,1.542-0.536,2.48-0.536,3.486c0,2.815,1.34,4.223,4.09,4.223c2.21,0,4.825-1.607,8.11-5.093l4.423-22.456
		h7.173l-6.502,32.913L921.488,198.993z M937.778,166.08h7.172l-6.57,32.913h-7.238L937.778,166.08z M938.984,156.495
		c0-2.547,2.146-4.692,4.826-4.692c2.078,0,4.09,1.34,4.09,3.754c0,2.68-2.146,4.692-4.827,4.692
		c-2.078-0.002-4.09-1.342-4.09-3.755L938.984,156.495z M967.607,165.276c4.02,0,6.837,1.876,8.646,4.02l-4.02,4.358
		c-1.543-1.743-2.884-2.547-5.096-2.547c-5.898,0-11.06,6.837-11.06,15.015c0,4.96,2.212,7.843,6.636,7.843
		c2.547,0,4.56-1.207,6.234-2.547l3.083,4.558c-2.48,1.81-5.832,3.82-10.792,3.82c-7.24,0-12.535-4.892-12.535-13.405
		c0-11.797,8.65-21.114,18.904-21.114V165.276z M986.914,151.668h7.173l-5.966,29.762h0.27l14.545-15.35h8.044l-13.273,14.077
		l7.843,18.836h-7.24l-5.63-14.613l-6.435,6.502l-1.61,8.11h-7.238L986.914,151.668L986.914,151.668z M1047.043,186.66h-14.278
		l-6.1,12.333h-7.977l23.46-43.84h8.58l4.693,43.84h-7.507l-0.87-12.334L1047.043,186.66z M1046.641,181.162l-0.468-6.636
		c-0.27-4.49-0.604-8.848-0.805-13.607h-0.27c-2.144,4.758-4.088,9.048-6.367,13.606l-3.284,6.636L1046.641,181.162
		L1046.641,181.162z M1065.948,202.21l-1.877,9.787h-7.172l9.25-45.917h5.832l-0.134,4.022h0.2c3.15-2.75,6.905-4.826,10.66-4.826
		c5.83,0,9.383,4.29,9.383,12c0,12.6-8.58,22.52-17.63,22.52c-3.084,0-5.697-1.742-7.307-4.29h-0.134L1065.948,202.21
		L1065.948,202.21z M1071.378,175.934l-2.815,14.077c1.407,2.75,3.352,3.89,5.43,3.89c5.563,0,10.725-7.173,10.725-15.687
		c0-4.76-1.944-7.04-4.96-7.04C1077.208,171.174,1073.858,172.717,1071.378,175.934L1071.378,175.934z M1102.415,202.21
		l-1.877,9.787h-7.173l9.25-45.917h5.832l-0.134,4.022h0.2c3.15-2.75,6.905-4.826,10.66-4.826c5.83,0,9.383,4.29,9.383,12
		c0,12.6-8.58,22.52-17.63,22.52c-3.083,0-5.696-1.742-7.306-4.29h-0.134l-1.07,6.704L1102.415,202.21z M1107.845,175.934
		l-2.815,14.077c1.407,2.75,3.352,3.89,5.43,3.89c5.563,0,10.725-7.173,10.725-15.687c0-4.76-1.944-7.04-4.96-7.04
		C1113.675,171.174,1110.325,172.717,1107.845,175.934L1107.845,175.934z M1141.965,151.668h7.173l-7.91,39.616
		c-0.134,0.67-0.134,1.005-0.134,1.273c0,1.005,0.47,1.408,1.14,1.408c0.4,0,0.603,0,1.206-0.2l-0.134,5.362
		c-1.006,0.402-2.28,0.67-4.09,0.67c-3.82,0-5.562-2.01-5.562-5.362c0-1.005,0.134-2.078,0.47-3.486l7.84-39.282L1141.965,151.668z
		 M1150.01,206.77c2.814,0,5.562-2.414,7.373-6.1l1.005-2.012l-5.697-32.578h7.173l2.078,16.624c0.336,2.95,0.672,6.77,0.806,9.854
		h0.268c1.475-3.083,3.084-6.77,4.626-9.854l8.178-16.624h6.97l-18.5,34.655c-4.09,7.172-8.178,11.798-14.746,11.798
		c-1.073,0-2.95-0.47-4.224-1.207l2.28-5.23C1148.268,206.5,1149.14,206.769,1150.01,206.77L1150.01,206.77z"/>
</g>
<path fill="#FFFFFF" d="M686.21,178.293c-7.713,0-12.854,6.744-12.854,13.023c0,5.814,3.74,9.767,9.348,9.767
	c7.71,0,12.852-6.512,12.852-13.023C695.556,182.48,691.816,178.293,686.21,178.293L686.21,178.293z M749.415,140.155
	c-5.608,0-11.918,3.023-17.06,7.674h-0.233l-0.467-6.28h-15.19l-15.89,78.602h18.695l2.804-14.418l1.402-10.93h0.234
	c2.337,3.953,6.543,6.28,10.983,6.28c16.124,0,31.08-17.443,31.08-39.535c0-13.72-6.076-21.395-16.358-21.395L749.415,140.155z
	 M733.291,185.968c-2.336,0-4.906-1.395-6.075-4.418l3.973-19.767c2.804-5.116,6.777-6.51,9.815-6.51
	c3.272,0,5.375,2.557,5.375,8.603c0,13.022-6.31,22.092-13.087,22.092H733.291z M813.786,140.155c-7.01,0-13.086,3.488-17.76,7.674
	h-0.467l2.804-10.233l3.973-18.836H783.64l-16.358,80.928h18.695l7.244-37.208c4.207-4.418,7.01-6.51,10.283-6.51
	c3.038,0,4.907,1.627,4.907,4.882c0,1.395-0.467,3.023-0.935,5.116l-6.777,33.72h18.694l7.244-36.045
	c0.7-2.79,0.935-5.814,0.935-8.372c0.002-9.998-4.204-15.115-13.785-15.115L813.786,140.155z"/>
<path fill="#FFFFFF" d="M229.304,154.535c0-10.134-4.378-15.318-14.35-15.318c-7.783,0-14.593,4.242-20.186,8.955h-0.487v-7.54
	h-15.808l-11.918,58.916h19.457l7.54-37.707c4.38-4.477,7.298-6.597,10.703-6.597c3.162,0,5.107,1.65,5.107,4.95
	c0,1.413-0.487,3.062-0.973,5.183l-7.053,34.172h19.457l7.54-36.528c0.61-2.83,0.974-5.892,0.974-8.485L229.304,154.535z
	 M154.278,140.631l-2.675,5.893h-0.243c-2.19-4.478-7.54-7.306-12.647-7.306c-16.782,0-32.347,17.675-32.347,40.063
	c0,13.904,6.324,21.68,17.025,21.68c5.838,0,12.892-3.298,18.242-8.72h0.243v7.307h15.81l12.16-58.917L154.278,140.631
	L154.278,140.631z M142.848,177.867c-3.163,6.363-7.54,7.777-10.702,7.777c-3.405,0-5.594-2.592-5.594-8.72
	c0-13.197,6.567-22.388,13.62-22.388c2.19,0,5.107,1.414,6.567,4.478l-3.893,18.853L142.848,177.867z M263.713,164.67
	c-4.62-2.594-9.73-4.007-9.73-7.307c0-2.356,2.433-4.242,6.325-4.242c3.89,0,7.296,2.358,10.215,5.186l10.458-9.662
	c-5.106-5.184-11.917-9.427-20.672-9.427c-13.62,0-24.565,8.484-24.565,19.796c0,7.777,5.716,13.197,11.674,16.497
	c6.323,3.535,10.215,4.713,10.215,7.777c0,2.357-3.162,4.006-6.81,4.006s-7.783-1.885-12.16-6.834l-11.19,8.954
	c5.352,7.777,15.08,11.547,22.133,11.547c15.322,0,26.267-8.01,26.267-19.795C275.873,172.446,269.551,167.734,263.713,164.67
	L263.713,164.67z M495.347,133.09c6.567,0,11.674-4.478,11.674-10.605c0-5.656-5.106-8.72-10.214-8.72
	c-6.567,0-11.674,4.95-11.674,10.605c0,5.89,5.107,8.72,10.215,8.72H495.347z M27.81,138.132
	c-2.687,14.578-11.78,61.974-11.78,61.974l19.874,0.16c0,0,14.636-76.26,16.5-82.73C43.24,115.579,31.211,119.691,27.81,138.132
	L27.81,138.132z M80.226,139.217c-16.782,0-34.536,14.376-34.536,37.235c0,14.61,9.73,24.51,24.32,24.51
	c16.783,0,34.537-14.376,34.537-37.236C104.547,149.116,94.819,139.216,80.226,139.217L80.226,139.217z M72.2,185.88
	c-4.62,0-6.81-3.77-6.81-9.663c0-12.726,5.594-21.917,12.647-21.917c4.62,0,6.81,3.77,6.81,9.662
	C84.847,176.688,79.253,185.879,72.2,185.88L72.2,185.88z M557.81,153.472c-1.146,1.582-2.392,3.054-3.53,4.646l-0.2,0.15v0.1
	l-0.1,0.05c-0.016,0.05-0.032,0.1-0.05,0.15l-0.2,0.15v0.1c-0.033,0.018-0.066,0.034-0.1,0.05l-0.05,0.15l-0.2,0.152v0.1l-0.15,0.1
	v0.1l-0.2,0.15v0.1l-0.1,0.05l-0.05,0.152l-0.2,0.15v0.1l-0.1,0.05l-0.05,0.15l-0.2,0.15v0.1l-0.1,0.05l-0.05,0.15l-0.2,0.15v0.1
	c-0.05,0.034-0.1,0.068-0.15,0.1v0.1l-0.2,0.15v0.1l-0.2,0.15v0.1c-0.05,0.035-0.1,0.068-0.15,0.1v0.1
	c-0.067,0.05-0.134,0.1-0.2,0.152v0.1l-0.1,0.05l-0.05,0.15l-0.2,0.15v0.1l-0.1,0.05l-0.05,0.15l-0.2,0.15v0.1l-0.1,0.05l-0.05,0.15
	l-0.2,0.15v0.1l-0.15,0.1v0.1l-0.2,0.15c-1.4,1.957-2.957,3.755-4.355,5.713l-0.2,0.15v0.1l-0.15,0.1v0.1l-0.2,0.15v0.1l-0.2,0.15
	v0.1l-0.1,0.05l-0.05,0.15l-0.2,0.15v0.1l-0.1,0.05l-0.05,0.15l-0.2,0.15v0.1l-0.1,0.05l-0.05,0.15l-0.2,0.15v0.1l-0.1,0.05
	l-0.05,0.15l-0.2,0.15v0.1l-0.1,0.05l-0.05,0.15l-0.2,0.15v0.1l-0.15,0.1v0.1l-0.2,0.15v0.1l-0.15,0.1v0.1l-0.2,0.15v0.1
	c-0.033,0.018-0.066,0.035-0.1,0.05l-0.05,0.152l-0.2,0.15v0.1c-0.05,0.032-0.1,0.066-0.15,0.1v0.1l-0.2,0.15v0.1l-0.1,0.05
	l-0.05,0.15l-0.2,0.15v0.1l-0.1,0.05l-0.05,0.15l-0.2,0.15v0.1l-0.1,0.05l-0.05,0.15l-0.2,0.15v0.1
	c-0.033,0.018-0.067,0.034-0.1,0.05l-0.05,0.15l-0.2,0.15v0.1l-0.1,0.05l-0.05,0.15l-0.2,0.15v0.1c-0.05,0.035-0.1,0.068-0.15,0.1
	v0.1l-0.2,0.15v0.1c-0.05,0.035-0.1,0.068-0.15,0.1v0.1l-0.2,0.15v0.1c-0.033,0.018-0.066,0.034-0.1,0.05l-0.05,0.15l-0.2,0.15v0.1
	c-0.05,0.035-0.1,0.068-0.15,0.1v0.1l-0.2,0.15v0.1l-0.2,0.15v0.1c-0.033,0.018-0.067,0.035-0.1,0.05l-0.05,0.15l-0.2,0.15v0.1
	l-0.1,0.05l-0.05,0.15l-0.2,0.15v0.1c-0.033,0.017-0.067,0.035-0.1,0.05l-0.05,0.152l-0.2,0.15v0.1l-0.1,0.05l-0.05,0.15l-0.2,0.15
	v0.1l-0.15,0.1v0.1l-0.2,0.15v0.1c-0.05,0.034-0.1,0.068-0.15,0.1v0.1l-0.2,0.15c-1.402,1.958-2.958,3.756-4.357,5.714l-0.2,0.15
	v0.1l-0.2,0.15v0.1c-0.033,0.018-0.067,0.035-0.1,0.05l-0.05,0.152l-0.2,0.15v0.1l-0.1,0.05l-0.05,0.15l-0.2,0.15v0.1
	c-0.05,0.035-0.1,0.068-0.15,0.1v0.1l-0.2,0.152v0.1l-0.1,0.05l-0.05,0.15l-0.2,0.15v0.1l-0.1,0.05l-0.05,0.15l-0.2,0.15v0.1
	c-0.033,0.018-0.067,0.034-0.1,0.05l-0.05,0.15c-0.067,0.05-0.134,0.1-0.2,0.152v0.1l-0.15,0.1v0.1l-0.2,0.15v0.1l-0.25,0.2
	l-0.1,0.15h-0.05v0.1l-0.15,0.05l-0.2,0.25l-0.2,0.05v0.05c-0.71,0.307-1.258-0.406-1.553-0.702l-0.2-0.15l-0.05-0.1h-0.1
	l-1.05-1.102l-0.2-0.15v-0.05h-0.1l-0.502-0.552c-0.254-0.254-0.505-0.487-0.8-0.7l-0.35-0.402c-0.303-0.303-0.6-0.598-0.952-0.852
	l-0.25-0.3c-0.318-0.32-0.63-0.635-1-0.903l-0.5-0.552l-1.252-1.153l-0.75-0.802c-0.37-0.268-0.684-0.584-1.002-0.902l-0.25-0.3
	h-0.1l-0.15-0.2l-0.4-0.35l-0.6-0.653c-0.37-0.268-0.684-0.584-1.002-0.902l-0.3-0.35h-0.1l-1-1.053l-0.15-0.1v-0.05h-0.1
	L512,177.33c-0.05-0.034-0.1-0.068-0.15-0.1v-0.05h-0.1l-0.15-0.2c-0.15-0.135-0.3-0.27-0.45-0.402
	c-0.185-0.2-0.368-0.4-0.552-0.602h-0.1l-0.05-0.1h-0.05l-1.1-1.153h-0.1l-0.4-0.45c-0.316-0.316-0.65-0.516-0.802-1.003
	c-0.047-0.15,0.06-0.613,0.1-0.702h0.05v-0.1l0.1-0.05v-0.1l0.4-0.35l0.35-0.402l0.15-0.1v-0.1l0.35-0.3l0.4-0.452l0.2-0.15v-0.1
	l0.902-0.852v-0.1l0.55-0.5l0.3-0.352c0.05-0.033,0.1-0.067,0.152-0.1v-0.1l0.95-0.902v-0.1c0.335-0.318,0.67-0.635,1.002-0.953
	v-0.1l0.35-0.3l0.05-0.1c0.12-0.084,0.26-0.094,0.352-0.2l0.4-0.05c0.695,0.16,1.025,0.676,1.452,1.103
	c0.254,0.254,0.505,0.487,0.8,0.702l0.702,0.752l0.45,0.4l0.15,0.2h0.1l0.3,0.352c0.315,0.316,0.636,0.637,1,0.902l0.3,0.35
	l0.702,0.653l0.25,0.3h0.1l0.65,0.7c0.15,0.135,0.3,0.268,0.452,0.402l0.15,0.2h0.1l0.3,0.35c0.315,0.317,0.636,0.64,1,0.903
	l0.602,0.65l1,0.903c0.175,0.174,0.457,0.584,0.702,0.65c0.034-0.063,0.078-0.067,0.1-0.1v-0.1c0.05-0.032,0.1-0.066,0.15-0.1v-0.1
	l0.2-0.15v-0.1c0.05-0.032,0.1-0.066,0.15-0.1v-0.1l0.2-0.15v-0.1l0.1-0.05l0.05-0.15l0.2-0.15v-0.1l0.1-0.05
	c0.018-0.05,0.035-0.1,0.05-0.15l0.2-0.15v-0.1l0.1-0.05l0.05-0.15c0.067-0.05,0.134-0.1,0.2-0.152v-0.1l0.15-0.1v-0.1l0.2-0.15
	v-0.1l0.15-0.1v-0.1l0.2-0.15v-0.1l0.1-0.05c0.018-0.05,0.034-0.1,0.05-0.15l0.2-0.15v-0.1l0.1-0.05c0.018-0.05,0.035-0.1,0.05-0.15
	l0.2-0.15v-0.1l0.15-0.1v-0.1l0.2-0.15c1.29-1.8,2.718-3.46,4.006-5.262l0.2-0.15v-0.1l0.1-0.05l0.05-0.15l0.2-0.15v-0.1l0.1-0.05
	l0.05-0.15l0.2-0.15v-0.1c0.05-0.035,0.1-0.068,0.15-0.1v-0.1l0.1-0.05v-0.05c0.033-0.017,0.067-0.035,0.1-0.05v-0.1l0.2-0.15v-0.1
	c0.033-0.018,0.067-0.035,0.1-0.05l0.05-0.15l0.2-0.15v-0.1c0.033-0.017,0.067-0.035,0.1-0.05l0.05-0.15l0.2-0.15v-0.1
	c0.034-0.018,0.067-0.035,0.1-0.05c0.018-0.05,0.034-0.1,0.05-0.15l0.2-0.15v-0.1c0.05-0.034,0.1-0.068,0.15-0.1v-0.1l0.2-0.15v-0.1
	l0.1-0.05c0.018-0.05,0.034-0.1,0.05-0.15l0.2-0.15v-0.1l0.1-0.05c0.018-0.05,0.034-0.1,0.05-0.152l0.2-0.15v-0.1l0.15-0.1v-0.1
	l0.2-0.15c1.29-1.802,2.718-3.46,4.006-5.263l0.2-0.152v-0.1l0.1-0.05l0.05-0.15l0.2-0.15v-0.1l0.1-0.05l0.05-0.15l0.2-0.15v-0.1
	c0.033-0.018,0.066-0.035,0.1-0.05l0.05-0.15c0.067-0.05,0.134-0.1,0.2-0.152v-0.1l0.15-0.1v-0.1l0.2-0.15v-0.1l0.1-0.05l0.05-0.15
	l0.2-0.15v-0.1l0.1-0.05l0.05-0.15l0.2-0.15v-0.1l0.1-0.05l0.05-0.15l0.2-0.15v-0.1l0.2-0.15v-0.1l0.15-0.1v-0.1l0.2-0.15v-0.1
	l0.15-0.1v-0.1l0.2-0.15c1.4-1.957,2.958-3.755,4.356-5.713l0.2-0.15v-0.1l0.1-0.05l0.05-0.15l0.2-0.15v-0.1l0.1-0.05l0.05-0.15
	l0.2-0.15v-0.1c0.05-0.035,0.1-0.068,0.15-0.1v-0.1l0.2-0.15l0.046-0.14c-4.088-3.243-9.45-5.08-15.722-5.08
	c-16.782,0-34.536,14.376-34.536,37.235c0,14.61,9.728,24.51,24.32,24.51c16.783,0,34.537-14.376,34.537-37.236
	c-0.008-3.758-0.663-7.2-1.87-10.25L557.81,153.472z M621.807,154.535c0-10.134-4.378-15.318-14.35-15.318
	c-7.783,0-14.593,4.242-20.187,8.955h-0.486v-7.54h-15.81l-11.916,58.916h19.457l7.54-37.707c4.377-4.477,7.295-6.597,10.7-6.597
	c3.163,0,5.108,1.65,5.108,4.95c0,1.413-0.487,3.062-0.973,5.183l-7.053,34.172h19.457l7.54-36.528
	c0.61-2.83,0.973-5.892,0.973-8.485L621.807,154.535z M313.687,139.217c-16.78,0-34.535,14.376-34.535,37.235
	c0,14.61,9.73,24.51,24.32,24.51c16.783,0,34.538-14.376,34.538-37.236c0-14.61-9.73-24.51-24.322-24.51L313.687,139.217z
	 M305.662,185.879c-4.62,0-6.81-3.77-6.81-9.663c0-12.726,5.594-21.917,12.647-21.917c4.62,0,6.81,3.77,6.81,9.662
	c0,12.726-5.595,21.917-12.648,21.917L305.662,185.879z M482.457,140.629l-12.16,58.918h19.456l12.16-58.917L482.457,140.629
	L482.457,140.629z M656.217,164.669c-4.622-2.594-9.73-4.007-9.73-7.307c0-2.356,2.432-4.242,6.324-4.242s7.297,2.358,10.216,5.186
	l10.458-9.662c-5.108-5.184-11.917-9.427-20.673-9.427c-13.62,0-24.564,8.484-24.564,19.796c0,7.777,5.716,13.197,11.674,16.497
	c6.323,3.535,10.215,4.713,10.215,7.777c0,2.357-3.16,4.006-6.81,4.006c-3.648,0-7.783-1.885-12.16-6.834l-11.19,8.954
	c5.352,7.777,15.08,11.547,22.133,11.547c15.323,0,26.267-8.01,26.267-19.795C668.379,172.445,662.055,167.733,656.217,164.669
	L656.217,164.669z M349.283,138.13c-2.688,14.578-11.782,61.974-11.782,61.974l19.875,0.16c0,0,14.636-76.26,16.5-82.73
	C364.712,115.577,352.683,119.689,349.283,138.13z M404.883,178.335c-3.89,4.478-6.81,6.6-9.972,6.6s-5.107-1.65-5.107-4.95
	c0-1.414,0.486-3.064,0.973-5.185l7.053-34.172h-19.456l-7.54,36.528c-0.607,2.828-0.972,5.892-0.972,8.484
	c0,10.134,4.378,15.318,14.35,15.318c7.296,0,14.35-4.242,19.457-8.955h0.485v7.54h15.81l11.916-58.916h-19.456l-7.54,37.707
	L404.883,178.335z M459.963,155.24h10.254l2.92-14.61h-9.768l2.918-15.083h-16.295l-5.35,15.08l-8.757,0.708l-2.918,13.904h7.782
	l-4.62,21.446c-0.488,2.592-0.974,5.184-0.974,7.777c0,9.662,5.35,16.496,18.24,16.496c6.81,0,6.87-1.413,10.274-2.59l1.645-13.2
	c-1.46,0.708-2.92,1.18-4.378,1.18c-3.892,0-5.837-1.65-5.837-5.186c0-1.178,0-2.357,0.243-3.77l4.62-22.152L459.963,155.24z"/>
</svg>
