<?xml version="1.0" encoding="utf-8"?>
<!-- Generator: Adobe Illustrator 17.0.0, SVG Export Plug-In . SVG Version: 6.00 Build 0)  -->
<!DOCTYPE svg PUBLIC "-//W3C//DTD SVG 1.1//EN" "http://www.w3.org/Graphics/SVG/1.1/DTD/svg11.dtd">
<svg version="1.1" id="Layer_1" xmlns="http://www.w3.org/2000/svg" xmlns:xlink="http://www.w3.org/1999/xlink" x="0px" y="0px"
	 width="1170.908px" height="106.387px" viewBox="16.029 9.765 1170.908 106.387"
	 enable-background="new 16.029 9.765 1170.908 106.387" xml:space="preserve">
<g>
	<g id="loansolutions.ph_copy_2_">
		<path fill="#2CCD97" d="M686.209,74.293c-7.712,0-12.853,6.744-12.853,13.023c0,5.814,3.739,9.767,9.348,9.767
			c7.711,0,12.852-6.512,12.852-13.023C695.556,78.479,691.817,74.293,686.209,74.293z M749.415,36.155
			c-5.608,0-11.918,3.023-17.059,7.674h-0.234l-0.467-6.279h-15.189l-15.891,78.602h18.695l2.804-14.418l1.402-10.93h0.234
			c2.337,3.953,6.543,6.279,10.983,6.279c16.124,0,31.08-17.442,31.08-39.534C765.773,43.829,759.697,36.155,749.415,36.155z
			 M733.291,81.968c-2.337,0-4.907-1.395-6.076-4.418l3.973-19.767c2.804-5.116,6.777-6.511,9.815-6.511
			c3.272,0,5.375,2.558,5.375,8.604C746.377,72.898,740.068,81.968,733.291,81.968z M813.785,36.155
			c-7.01,0-13.086,3.488-17.76,7.674h-0.467l2.804-10.232l3.973-18.836H783.64l-16.358,80.927h18.695l7.244-37.208
			c4.206-4.418,7.01-6.511,10.282-6.511c3.038,0,4.907,1.628,4.907,4.883c0,1.395-0.467,3.023-0.935,5.116l-6.777,33.72h18.694
			l7.244-36.045c0.701-2.791,0.935-5.814,0.935-8.372C827.572,41.272,823.366,36.155,813.785,36.155z"/>
	</g>
	<g id="loansolutions_2_">
		<path fill="#2CCD97" d="M229.304,50.535c0-10.134-4.378-15.318-14.35-15.318c-7.783,0-14.593,4.242-20.186,8.955h-0.487v-7.541
			h-15.809l-11.918,58.917h19.457l7.54-37.707c4.378-4.478,7.297-6.598,10.702-6.598c3.162,0,5.107,1.65,5.107,4.949
			c0,1.414-0.487,3.063-0.973,5.184l-7.053,34.172h19.457l7.54-36.528C228.939,56.191,229.304,53.128,229.304,50.535z
			 M154.278,36.631l-2.675,5.892h-0.243c-2.189-4.478-7.54-7.306-12.647-7.306c-16.782,0-32.347,17.675-32.347,40.063
			c0,13.904,6.324,21.681,17.025,21.681c5.837,0,12.891-3.299,18.241-8.72h0.243v7.306h15.809l12.16-58.917h-15.566V36.631z
			 M142.847,73.866c-3.162,6.363-7.54,7.777-10.701,7.777c-3.405,0-5.594-2.592-5.594-8.72c0-13.197,6.567-22.388,13.62-22.388
			c2.189,0,5.107,1.414,6.567,4.478L142.847,73.866z M263.713,60.669c-4.621-2.593-9.729-4.006-9.729-7.306
			c0-2.356,2.432-4.242,6.324-4.242c3.891,0,7.296,2.357,10.215,5.185l10.458-9.662c-5.107-5.184-11.918-9.427-20.673-9.427
			c-13.62,0-24.565,8.484-24.565,19.796c0,7.777,5.716,13.197,11.674,16.497c6.323,3.535,10.215,4.713,10.215,7.777
			c0,2.357-3.162,4.006-6.81,4.006s-7.783-1.885-12.161-6.834l-11.188,8.955c5.351,7.777,15.079,11.547,22.132,11.547
			c15.322,0,26.267-8.012,26.267-19.796C275.873,68.446,269.55,63.733,263.713,60.669z M495.347,29.09
			c6.567,0,11.674-4.478,11.674-10.605c0-5.656-5.107-8.72-10.215-8.72c-6.567,0-11.674,4.949-11.674,10.605
			C485.132,26.261,490.239,29.09,495.347,29.09z M27.811,34.132C25.123,48.71,16.029,96.106,16.029,96.106l19.875,0.159
			c0,0,14.636-76.258,16.5-82.729C43.24,11.579,31.211,15.691,27.811,34.132z M80.226,35.217c-16.782,0-34.536,14.376-34.536,37.235
			c0,14.611,9.729,24.509,24.321,24.509c16.782,0,34.536-14.375,34.536-37.235C104.547,45.115,94.819,35.217,80.226,35.217z
			 M72.2,81.879c-4.621,0-6.81-3.77-6.81-9.662c0-12.726,5.594-21.917,12.647-21.917c4.621,0,6.81,3.77,6.81,9.662
			C84.847,72.688,79.253,81.879,72.2,81.879z M557.81,49.472c-1.146,1.582-2.392,3.054-3.529,4.646c-0.067,0.05-0.133,0.1-0.2,0.15
			v0.1c-0.033,0.017-0.067,0.034-0.1,0.05c-0.017,0.05-0.033,0.1-0.05,0.151c-0.067,0.05-0.134,0.1-0.2,0.15v0.1
			c-0.034,0.017-0.067,0.033-0.101,0.05c-0.016,0.05-0.033,0.1-0.05,0.15c-0.067,0.05-0.133,0.1-0.2,0.151v0.1
			c-0.05,0.034-0.1,0.067-0.15,0.1v0.1c-0.066,0.05-0.133,0.1-0.2,0.151v0.1c-0.033,0.016-0.067,0.033-0.1,0.05
			c-0.017,0.05-0.033,0.1-0.05,0.151c-0.067,0.05-0.133,0.1-0.2,0.15v0.1c-0.033,0.017-0.067,0.033-0.1,0.05
			c-0.017,0.05-0.033,0.1-0.05,0.15c-0.066,0.05-0.133,0.1-0.2,0.15v0.1c-0.033,0.017-0.067,0.034-0.1,0.05
			c-0.016,0.05-0.033,0.1-0.05,0.15c-0.067,0.05-0.133,0.1-0.2,0.151v0.1c-0.05,0.033-0.1,0.067-0.15,0.1v0.1
			c-0.066,0.05-0.133,0.1-0.2,0.15v0.1c-0.067,0.05-0.133,0.1-0.2,0.15v0.1c-0.05,0.034-0.1,0.067-0.15,0.1v0.1
			c-0.067,0.05-0.134,0.1-0.2,0.151v0.1c-0.034,0.017-0.067,0.034-0.1,0.05c-0.016,0.05-0.033,0.1-0.05,0.15
			c-0.067,0.05-0.133,0.1-0.2,0.15v0.1c-0.033,0.016-0.067,0.033-0.1,0.05c-0.017,0.05-0.033,0.1-0.05,0.15
			c-0.067,0.05-0.134,0.1-0.2,0.15v0.1c-0.034,0.017-0.067,0.034-0.1,0.05c-0.017,0.05-0.034,0.1-0.05,0.15
			c-0.067,0.05-0.133,0.1-0.2,0.15v0.1c-0.05,0.034-0.1,0.067-0.15,0.1v0.1c-0.067,0.05-0.134,0.1-0.2,0.15
			c-1.401,1.957-2.957,3.755-4.355,5.713c-0.067,0.05-0.134,0.1-0.2,0.15v0.1c-0.05,0.034-0.1,0.067-0.15,0.1v0.1
			c-0.067,0.05-0.133,0.1-0.2,0.15v0.1c-0.067,0.05-0.133,0.1-0.2,0.15v0.1c-0.033,0.016-0.067,0.033-0.1,0.05
			c-0.017,0.05-0.033,0.1-0.05,0.15c-0.067,0.05-0.134,0.1-0.2,0.15v0.1c-0.033,0.017-0.066,0.034-0.1,0.05
			c-0.017,0.05-0.033,0.1-0.05,0.15c-0.067,0.05-0.133,0.1-0.2,0.15v0.1c-0.033,0.017-0.067,0.033-0.1,0.05
			c-0.017,0.05-0.033,0.1-0.05,0.15c-0.067,0.05-0.133,0.1-0.2,0.15v0.1c-0.033,0.017-0.066,0.034-0.1,0.05
			c-0.017,0.05-0.033,0.1-0.05,0.15c-0.067,0.05-0.134,0.1-0.2,0.15v0.1c-0.034,0.017-0.067,0.034-0.1,0.05
			c-0.016,0.05-0.033,0.1-0.05,0.15c-0.067,0.05-0.133,0.1-0.2,0.15v0.1c-0.05,0.033-0.1,0.067-0.15,0.1v0.1
			c-0.067,0.05-0.134,0.1-0.2,0.15v0.1c-0.05,0.034-0.1,0.067-0.15,0.1v0.1c-0.067,0.05-0.133,0.1-0.2,0.151v0.1
			c-0.033,0.017-0.066,0.034-0.1,0.05c-0.017,0.05-0.033,0.1-0.05,0.151c-0.067,0.05-0.134,0.1-0.2,0.15v0.1
			c-0.05,0.033-0.1,0.067-0.15,0.1v0.1c-0.067,0.05-0.133,0.1-0.2,0.15v0.1c-0.033,0.017-0.067,0.034-0.1,0.05
			c-0.017,0.05-0.033,0.1-0.05,0.15c-0.067,0.05-0.134,0.1-0.2,0.151v0.1c-0.034,0.016-0.067,0.033-0.1,0.05
			c-0.017,0.05-0.034,0.1-0.05,0.151c-0.067,0.05-0.133,0.1-0.2,0.15v0.1c-0.033,0.016-0.067,0.033-0.1,0.05
			c-0.017,0.05-0.033,0.1-0.05,0.15c-0.066,0.05-0.133,0.1-0.2,0.15v0.1c-0.033,0.017-0.067,0.033-0.1,0.05
			c-0.017,0.05-0.033,0.1-0.05,0.15c-0.067,0.05-0.133,0.1-0.2,0.15v0.1c-0.033,0.016-0.067,0.033-0.1,0.05
			c-0.017,0.05-0.033,0.1-0.05,0.15c-0.067,0.05-0.133,0.1-0.2,0.15v0.1c-0.05,0.034-0.1,0.067-0.15,0.1v0.1
			c-0.067,0.05-0.133,0.1-0.2,0.15v0.1c-0.05,0.034-0.1,0.067-0.15,0.1v0.1c-0.067,0.05-0.133,0.1-0.2,0.15v0.1
			c-0.033,0.017-0.066,0.033-0.1,0.05c-0.017,0.05-0.033,0.1-0.05,0.15c-0.067,0.05-0.134,0.1-0.2,0.15v0.1
			c-0.05,0.034-0.1,0.067-0.15,0.1v0.1c-0.067,0.05-0.133,0.1-0.2,0.15v0.1c-0.066,0.05-0.133,0.1-0.2,0.15v0.1
			c-0.033,0.017-0.067,0.034-0.1,0.05c-0.017,0.05-0.033,0.1-0.05,0.15c-0.067,0.05-0.133,0.1-0.2,0.15v0.1
			c-0.034,0.016-0.067,0.033-0.1,0.05c-0.017,0.05-0.034,0.1-0.05,0.15c-0.066,0.05-0.133,0.1-0.2,0.15v0.1
			c-0.033,0.016-0.067,0.034-0.1,0.05c-0.017,0.05-0.033,0.1-0.05,0.151c-0.067,0.05-0.134,0.1-0.2,0.15v0.1
			c-0.034,0.017-0.067,0.033-0.1,0.05c-0.017,0.05-0.034,0.1-0.05,0.15c-0.067,0.05-0.133,0.1-0.2,0.15v0.1
			c-0.05,0.033-0.1,0.067-0.15,0.1v0.1c-0.067,0.05-0.134,0.1-0.201,0.151v0.1c-0.05,0.033-0.1,0.067-0.15,0.1v0.1
			c-0.067,0.05-0.133,0.1-0.2,0.15c-1.401,1.957-2.957,3.755-4.356,5.713c-0.067,0.05-0.133,0.1-0.2,0.151v0.1
			c-0.067,0.05-0.134,0.1-0.2,0.15v0.1c-0.033,0.017-0.067,0.034-0.1,0.05c-0.017,0.05-0.033,0.1-0.05,0.151
			c-0.067,0.05-0.133,0.1-0.2,0.15v0.1c-0.033,0.017-0.067,0.033-0.1,0.05c-0.017,0.05-0.033,0.1-0.05,0.15
			c-0.067,0.05-0.133,0.1-0.2,0.151v0.1c-0.05,0.034-0.1,0.067-0.15,0.1v0.1c-0.066,0.05-0.133,0.1-0.2,0.151v0.1
			c-0.033,0.016-0.066,0.033-0.1,0.05c-0.016,0.05-0.033,0.1-0.05,0.151c-0.067,0.05-0.133,0.1-0.2,0.15v0.1
			c-0.034,0.016-0.067,0.033-0.1,0.05c-0.017,0.05-0.034,0.1-0.05,0.15c-0.067,0.05-0.133,0.1-0.2,0.15v0.1
			c-0.033,0.017-0.067,0.033-0.1,0.05c-0.017,0.05-0.033,0.1-0.05,0.15c-0.067,0.05-0.134,0.1-0.2,0.151v0.1
			c-0.05,0.033-0.1,0.067-0.15,0.1v0.1c-0.067,0.05-0.133,0.1-0.2,0.15v0.1c-0.084,0.067-0.167,0.134-0.25,0.2
			c-0.034,0.05-0.067,0.1-0.1,0.15h-0.05v0.1c-0.05,0.017-0.1,0.034-0.15,0.05c-0.067,0.083-0.134,0.167-0.2,0.25
			c-0.067,0.017-0.134,0.034-0.201,0.05v0.05c-0.708,0.307-1.257-0.406-1.552-0.702c-0.067-0.05-0.133-0.1-0.2-0.15
			c-0.017-0.034-0.034-0.067-0.05-0.1h-0.1c-0.35-0.368-0.701-0.735-1.051-1.102c-0.067-0.05-0.134-0.1-0.2-0.15v-0.05h-0.1
			c-0.167-0.184-0.334-0.368-0.501-0.552c-0.254-0.254-0.505-0.487-0.801-0.701c-0.117-0.134-0.233-0.267-0.35-0.401
			c-0.302-0.303-0.6-0.598-0.951-0.852c-0.084-0.1-0.167-0.2-0.25-0.301c-0.319-0.318-0.632-0.634-1.001-0.902
			c-0.167-0.184-0.334-0.368-0.501-0.551c-0.417-0.384-0.835-0.769-1.251-1.153c-0.251-0.267-0.501-0.535-0.751-0.802
			c-0.37-0.268-0.683-0.584-1.001-0.902c-0.083-0.1-0.167-0.2-0.25-0.301h-0.1c-0.05-0.067-0.1-0.134-0.15-0.2
			c-0.134-0.117-0.267-0.234-0.4-0.351c-0.2-0.217-0.401-0.434-0.601-0.652c-0.37-0.268-0.683-0.584-1.001-0.902
			c-0.1-0.117-0.2-0.234-0.3-0.351h-0.1c-0.334-0.351-0.668-0.702-1.001-1.052c-0.05-0.033-0.1-0.067-0.15-0.1v-0.05h-0.1
			c-0.35-0.368-0.701-0.735-1.051-1.103c-0.05-0.033-0.1-0.067-0.151-0.1v-0.05h-0.1c-0.05-0.067-0.1-0.134-0.15-0.2
			c-0.15-0.134-0.3-0.268-0.45-0.401c-0.184-0.2-0.367-0.401-0.551-0.602h-0.1c-0.017-0.033-0.033-0.067-0.05-0.1h-0.05
			c-0.367-0.384-0.734-0.769-1.101-1.153h-0.1c-0.133-0.15-0.267-0.3-0.4-0.451c-0.315-0.315-0.649-0.515-0.801-1.002
			c-0.047-0.15,0.06-0.613,0.1-0.702h0.05v-0.1c0.033-0.017,0.067-0.034,0.1-0.05v-0.1c0.133-0.117,0.267-0.234,0.4-0.351
			c0.117-0.133,0.233-0.267,0.35-0.401c0.05-0.034,0.1-0.067,0.15-0.1v-0.1c0.117-0.1,0.233-0.2,0.35-0.301
			c0.134-0.15,0.267-0.301,0.401-0.451c0.067-0.05,0.134-0.1,0.2-0.15v-0.1c0.3-0.284,0.601-0.568,0.901-0.852v-0.1
			c0.183-0.167,0.367-0.334,0.551-0.501c0.1-0.117,0.2-0.234,0.3-0.351c0.05-0.033,0.1-0.067,0.151-0.1v-0.1
			c0.317-0.301,0.634-0.602,0.951-0.902v-0.1c0.334-0.318,0.668-0.635,1.001-0.953v-0.1c0.117-0.1,0.234-0.2,0.351-0.3
			c0.017-0.034,0.033-0.067,0.05-0.1c0.119-0.084,0.258-0.094,0.351-0.2c0.133-0.017,0.267-0.034,0.4-0.05
			c0.695,0.159,1.025,0.676,1.452,1.103c0.254,0.254,0.505,0.487,0.801,0.702c0.233,0.25,0.467,0.501,0.701,0.752
			c0.15,0.134,0.3,0.267,0.45,0.401l0.15,0.2h0.1c0.1,0.117,0.2,0.234,0.3,0.351c0.315,0.316,0.636,0.637,1.001,0.902
			c0.1,0.117,0.2,0.234,0.3,0.351c0.234,0.217,0.467,0.435,0.701,0.652c0.083,0.1,0.167,0.2,0.25,0.301h0.1
			c0.217,0.234,0.434,0.468,0.651,0.701c0.15,0.134,0.3,0.267,0.451,0.401c0.05,0.067,0.1,0.134,0.15,0.2h0.1
			c0.1,0.117,0.2,0.234,0.3,0.351c0.315,0.316,0.636,0.638,1.001,0.902c0.2,0.217,0.401,0.434,0.601,0.651
			c0.334,0.301,0.667,0.602,1.001,0.902c0.174,0.174,0.456,0.584,0.701,0.651c0.034-0.064,0.078-0.068,0.1-0.1v-0.1
			c0.05-0.033,0.1-0.067,0.15-0.1v-0.1c0.067-0.05,0.134-0.1,0.2-0.15v-0.1c0.05-0.033,0.1-0.067,0.15-0.1v-0.1
			c0.067-0.05,0.133-0.1,0.2-0.151v-0.1c0.033-0.017,0.067-0.034,0.1-0.05c0.017-0.05,0.033-0.1,0.05-0.151
			c0.067-0.05,0.134-0.1,0.201-0.15v-0.1c0.033-0.016,0.066-0.033,0.1-0.05c0.017-0.05,0.034-0.1,0.05-0.15
			c0.067-0.05,0.133-0.1,0.2-0.15v-0.1c0.033-0.017,0.067-0.034,0.1-0.05c0.016-0.05,0.033-0.1,0.05-0.15
			c0.066-0.05,0.133-0.1,0.2-0.151v-0.1c0.05-0.033,0.1-0.067,0.15-0.1v-0.1c0.067-0.05,0.134-0.1,0.2-0.15v-0.1
			c0.05-0.033,0.1-0.067,0.15-0.1v-0.1c0.067-0.05,0.133-0.1,0.2-0.15v-0.1c0.033-0.017,0.067-0.034,0.1-0.05
			c0.017-0.05,0.033-0.1,0.05-0.15c0.067-0.05,0.134-0.1,0.2-0.15v-0.1c0.034-0.017,0.067-0.034,0.1-0.05
			c0.017-0.05,0.034-0.1,0.05-0.15c0.067-0.05,0.133-0.1,0.2-0.15v-0.1c0.05-0.033,0.1-0.067,0.15-0.1v-0.1
			c0.067-0.05,0.133-0.1,0.2-0.15c1.29-1.801,2.717-3.459,4.005-5.262c0.067-0.05,0.133-0.1,0.2-0.15v-0.1
			c0.033-0.017,0.066-0.034,0.1-0.05c0.017-0.05,0.033-0.1,0.05-0.15c0.067-0.05,0.134-0.1,0.2-0.15v-0.1
			c0.034-0.017,0.067-0.033,0.1-0.05c0.016-0.05,0.033-0.1,0.05-0.15c0.066-0.05,0.133-0.1,0.2-0.151v-0.1
			c0.05-0.034,0.1-0.067,0.15-0.1v-0.1c0.034-0.017,0.067-0.033,0.1-0.05v-0.05c0.033-0.016,0.067-0.034,0.1-0.05v-0.1
			c0.067-0.05,0.134-0.1,0.2-0.15v-0.1c0.033-0.017,0.067-0.034,0.1-0.05c0.017-0.05,0.034-0.1,0.05-0.15
			c0.067-0.05,0.133-0.1,0.2-0.15v-0.1c0.033-0.016,0.067-0.034,0.1-0.05c0.017-0.05,0.033-0.1,0.05-0.15
			c0.067-0.05,0.134-0.1,0.201-0.15v-0.1c0.033-0.017,0.066-0.034,0.1-0.05c0.017-0.05,0.033-0.1,0.05-0.15
			c0.067-0.05,0.134-0.1,0.2-0.15v-0.1c0.05-0.033,0.1-0.067,0.15-0.1v-0.1c0.066-0.05,0.133-0.1,0.2-0.15v-0.1
			c0.033-0.017,0.067-0.034,0.1-0.05c0.017-0.05,0.033-0.1,0.05-0.15c0.067-0.05,0.134-0.1,0.2-0.15v-0.1
			c0.033-0.017,0.067-0.034,0.1-0.05c0.017-0.05,0.033-0.1,0.05-0.151c0.066-0.05,0.133-0.1,0.2-0.15v-0.1
			c0.05-0.033,0.1-0.067,0.15-0.1v-0.1c0.067-0.05,0.133-0.1,0.2-0.15c1.29-1.802,2.717-3.459,4.005-5.263
			c0.067-0.05,0.133-0.1,0.2-0.151v-0.1c0.033-0.017,0.066-0.034,0.1-0.05c0.017-0.05,0.033-0.1,0.05-0.151
			c0.067-0.05,0.134-0.1,0.2-0.15v-0.1c0.034-0.017,0.067-0.033,0.1-0.05c0.017-0.05,0.034-0.1,0.05-0.15
			c0.067-0.05,0.133-0.1,0.2-0.15v-0.1c0.033-0.017,0.066-0.034,0.1-0.05c0.017-0.05,0.033-0.1,0.05-0.15
			c0.067-0.05,0.134-0.1,0.2-0.151v-0.1c0.05-0.033,0.1-0.067,0.15-0.1v-0.1c0.067-0.05,0.133-0.1,0.2-0.15v-0.1
			c0.033-0.016,0.067-0.033,0.1-0.05c0.017-0.05,0.033-0.1,0.05-0.15c0.067-0.05,0.133-0.1,0.2-0.15v-0.1
			c0.034-0.017,0.067-0.034,0.1-0.05c0.017-0.05,0.034-0.1,0.05-0.15c0.067-0.05,0.133-0.1,0.2-0.15v-0.1
			c0.033-0.017,0.067-0.033,0.1-0.05c0.016-0.05,0.033-0.1,0.05-0.15c0.067-0.05,0.134-0.1,0.2-0.15v-0.1
			c0.067-0.05,0.134-0.1,0.201-0.15v-0.1c0.05-0.034,0.1-0.067,0.15-0.1v-0.1c0.067-0.05,0.134-0.1,0.2-0.15v-0.1
			c0.05-0.034,0.1-0.067,0.15-0.1v-0.1c0.067-0.05,0.133-0.1,0.2-0.15c1.4-1.957,2.957-3.755,4.355-5.713
			c0.067-0.05,0.133-0.1,0.2-0.15v-0.1c0.033-0.017,0.066-0.034,0.1-0.05c0.017-0.05,0.033-0.1,0.05-0.15
			c0.067-0.05,0.133-0.1,0.2-0.15v-0.1c0.033-0.016,0.067-0.033,0.1-0.05c0.017-0.05,0.033-0.1,0.05-0.15
			c0.067-0.05,0.133-0.1,0.2-0.151v-0.1c0.05-0.034,0.1-0.067,0.15-0.1v-0.1c0.067-0.05,0.134-0.1,0.2-0.15
			c0.015-0.046,0.031-0.092,0.046-0.138c-4.088-3.244-9.451-5.081-15.722-5.081c-16.782,0-34.536,14.376-34.536,37.235
			c0,14.611,9.728,24.509,24.321,24.509c16.782,0,34.536-14.375,34.536-37.235C559.672,55.964,559.017,52.521,557.81,49.472z
			 M621.807,50.535c0-10.134-4.378-15.318-14.35-15.318c-7.783,0-14.593,4.242-20.187,8.955h-0.486v-7.541h-15.809l-11.917,58.917
			h19.457l7.539-37.707c4.378-4.478,7.296-6.598,10.702-6.598c3.162,0,5.107,1.65,5.107,4.949c0,1.414-0.487,3.063-0.973,5.184
			l-7.053,34.172h19.457l7.539-36.528C621.443,56.191,621.807,53.128,621.807,50.535z M313.688,35.217
			c-16.782,0-34.536,14.376-34.536,37.235c0,14.611,9.729,24.509,24.321,24.509c16.782,0,34.537-14.375,34.537-37.235
			C338.009,45.115,328.281,35.217,313.688,35.217z M305.662,81.879c-4.621,0-6.81-3.77-6.81-9.662
			c0-12.726,5.594-21.917,12.647-21.917c4.621,0,6.81,3.77,6.81,9.662C318.309,72.688,312.715,81.879,305.662,81.879z
			 M482.457,36.631l-12.161,58.917h19.457l12.161-58.917C501.914,36.631,482.457,36.631,482.457,36.631z M656.216,60.669
			c-4.621-2.593-9.729-4.006-9.729-7.306c0-2.356,2.432-4.242,6.324-4.242c3.891,0,7.296,2.357,10.215,5.185l10.458-9.662
			c-5.108-5.184-11.917-9.427-20.673-9.427c-13.62,0-24.565,8.484-24.565,19.796c0,7.777,5.716,13.197,11.674,16.497
			c6.323,3.535,10.215,4.713,10.215,7.777c0,2.357-3.161,4.006-6.81,4.006c-3.648,0-7.783-1.885-12.161-6.834l-11.188,8.955
			c5.351,7.777,15.079,11.547,22.132,11.547c15.323,0,26.267-8.012,26.267-19.796C668.377,68.446,662.053,63.733,656.216,60.669z
			 M349.284,34.132c-2.688,14.578-11.782,61.974-11.782,61.974l19.875,0.159c0,0,14.636-76.258,16.499-82.729
			C364.713,11.579,352.684,15.691,349.284,34.132z M404.884,74.337c-3.891,4.478-6.81,6.599-9.972,6.599
			c-3.162,0-5.107-1.65-5.107-4.949c0-1.414,0.486-3.064,0.973-5.185l7.053-34.172h-19.457l-7.539,36.528
			c-0.608,2.828-0.973,5.892-0.973,8.484c0,10.134,4.378,15.318,14.35,15.318c7.296,0,14.349-4.242,19.457-8.955h0.486v7.541h15.809
			l11.917-58.917h-19.457L404.884,74.337z M459.964,51.242h10.254l2.919-14.611h-9.767l2.918-15.082h-16.295l-5.351,15.082
			l-8.756,0.707l-2.918,13.904h7.782l-4.621,21.446c-0.487,2.592-0.973,5.184-0.973,7.777c0,9.662,5.351,16.496,18.241,16.496
			c6.81,0,6.868-1.414,10.273-2.592l1.645-13.198c-1.459,0.707-2.919,1.178-4.378,1.178c-3.892,0-5.837-1.65-5.837-5.185
			c0-1.178,0-2.357,0.243-3.771L459.964,51.242z"/>
	</g>
</g>
<g>
	<g>
		<path fill="#546E7A" d="M849.488,43.906h8.199l-1.119,25.039c-0.373,5.216-0.672,10.508-1.119,15.797h0.299
			c2.161-5.29,4.546-10.655,6.631-15.797l11.104-25.039h6.931l0.447,25.039c0,5.142-0.074,10.508-0.223,15.797h0.297
			c1.865-5.29,3.95-10.655,5.815-15.797l9.389-25.039h7.75l-19.524,48.737H874.23l-0.15-26.528c0-3.354,0.223-7.603,0.447-11.403
			h-0.297c-1.342,3.8-2.981,7.601-4.546,11.403l-11.403,26.528h-9.985L849.488,43.906z"/>
		<path fill="#546E7A" d="M920.584,55.157c8.496,0,11.624,5.888,11.624,13.489c0,3.204-1.043,6.558-1.563,7.75h-22.284
			c-0.819,7.75,3.503,11.03,9.019,11.03c2.608,0,5.439-1.416,7.451-2.907l2.981,5.142c-2.981,2.085-7.304,3.876-12.52,3.876
			c-8.719,0-14.681-5.665-14.681-15.5C900.611,64.399,910.969,55.157,920.584,55.157z M925.204,71.33
			c0.223-0.969,0.373-2.012,0.373-3.204c0-3.577-1.492-6.781-5.962-6.781c-4.396,0-8.793,3.724-10.581,9.985H925.204z"/>
		<path fill="#546E7A" d="M938.622,58.587c4.993-2.161,7.75-6.111,7.824-8.795c-0.147,0-0.223,0-0.373,0
			c-2.608,0-4.544-1.416-4.544-4.024c0-2.758,2.085-5.142,5.216-5.142c2.831,0,4.693,2.235,4.693,6.111
			c0,7.9-5.14,13.265-11.401,15.5L938.622,58.587z"/>
		<path fill="#546E7A" d="M958.742,56.052h6.484l-0.672,7.078h0.299c2.905-4.544,6.931-7.974,11.327-7.974
			c1.565,0,2.682,0.226,3.651,0.672l-2.682,7.004c-0.896-0.447-2.161-0.596-3.43-0.596c-3.427,0-6.931,2.684-9.909,8.273
			l-4.323,22.132h-8.05L958.742,56.052z"/>
		<path fill="#546E7A" d="M997.942,55.157c8.496,0,11.624,5.888,11.624,13.489c0,3.204-1.043,6.558-1.565,7.75h-22.282
			c-0.819,7.75,3.503,11.03,9.019,11.03c2.608,0,5.439-1.416,7.451-2.907l2.981,5.142c-2.981,2.085-7.301,3.876-12.52,3.876
			c-8.719,0-14.681-5.665-14.681-15.5C977.969,64.399,988.33,55.157,997.942,55.157z M1002.562,71.33
			c0.223-0.969,0.373-2.012,0.373-3.204c0-3.577-1.489-6.781-5.962-6.781c-4.396,0-8.793,3.724-10.581,9.985H1002.562z"/>
		<path fill="#546E7A" d="M1047.65,55.157c8.496,0,11.624,5.888,11.624,13.489c0,3.204-1.043,6.558-1.563,7.75h-22.284
			c-0.819,7.75,3.503,11.03,9.019,11.03c2.608,0,5.439-1.416,7.451-2.907l2.981,5.142c-2.981,2.085-7.304,3.876-12.52,3.876
			c-8.719,0-14.681-5.665-14.681-15.5C1027.677,64.399,1038.035,55.157,1047.65,55.157z M1052.27,71.33
			c0.223-0.969,0.373-2.012,0.373-3.204c0-3.577-1.492-6.781-5.962-6.781c-4.396,0-8.793,3.724-10.581,9.985H1052.27z"/>
		<path fill="#546E7A" d="M1083.273,55.157c3.577,0,6.781,2.012,8.422,5.142h0.147l1.565-4.247h6.408l-7.301,36.59h-6.558
			l0.37-5.066h-0.223c-3.427,3.577-7.897,5.962-12.071,5.962c-6.411,0-10.434-4.769-10.434-13.342
			C1063.599,66.187,1073.138,55.157,1083.273,55.157z M1086.926,80.792l2.978-14.605c-1.639-3.131-3.948-4.473-6.185-4.473
			c-6.185,0-11.847,7.976-11.847,17.365c0,5.366,2.085,7.897,5.439,7.897C1080.442,86.977,1083.943,85.191,1086.926,80.792z"/>
		<path fill="#546E7A" d="M1105.258,82.657c2.385,3.128,5.366,4.919,8.643,4.919c3.427,0,6.411-2.088,6.411-4.769
			c0-2.311-1.938-3.577-6.56-6.111c-4.843-2.684-7.824-5.738-7.824-10.135c0-6.634,6.038-11.403,13.339-11.403
			c4.769,0,8.646,2.237,11.477,5.218l-4.47,4.247c-1.865-1.862-4.1-3.427-7.007-3.427c-3.354,0-5.812,2.085-5.812,4.62
			c0,2.684,3.13,3.95,6.259,5.738c5.442,2.907,8.123,5.812,8.123,10.285c0,7.078-6.109,11.7-14.531,11.7
			c-4.62,0-10.059-2.834-12.816-7.007L1105.258,82.657z"/>
		<path fill="#546E7A" d="M1132.311,101.285c3.131,0,6.185-2.682,8.197-6.781l1.119-2.235l-6.335-36.217h7.974l2.311,18.481
			c0.373,3.278,0.746,7.527,0.893,10.954h0.299c1.639-3.427,3.427-7.527,5.142-10.954l9.092-18.481h7.75l-20.569,38.528
			c-4.546,7.974-9.092,13.116-16.393,13.116c-1.192,0-3.28-0.523-4.696-1.342l2.534-5.812
			C1130.376,100.989,1131.342,101.285,1132.311,101.285z"/>
		<path fill="#546E7A" d="M1168.678,88.915c0-3.131,2.61-6.408,6.188-6.408c2.682,0,4.396,2.012,4.396,4.696
			c0,3.204-2.534,6.335-6.111,6.335C1170.469,93.538,1168.678,91.599,1168.678,88.915z M1177.697,50.836l1.266-8.199h7.974
			l-1.788,8.199l-6.259,26.008h-5.366L1177.697,50.836z"/>
	</g>
</g>
</svg>
